%FSLAX35Y35*%
%MOMM*%
G04 EasyPC Gerber Version 18.0.8 Build 3632 *
%ADD120R,1.16840X1.37160*%
%ADD130R,1.16840X2.18440*%
%ADD116R,1.25240X1.95240*%
%ADD124R,1.54940X1.67640*%
%ADD123R,1.55240X1.55240*%
%ADD119R,1.67640X1.67640*%
%ADD127R,1.15240X0.70240*%
%ADD126R,0.65240X0.85240*%
%ADD122C,1.55240*%
%ADD129C,1.85240*%
%ADD125C,2.35240*%
%ADD118C,2.55240*%
%ADD121R,1.67640X1.54940*%
%ADD117C,4.65240*%
%ADD128R,1.75240X1.75240*%
X0Y0D02*
D02*
D116*
X1729600Y241060D03*
Y1741060D03*
X1929600Y241060D03*
Y1741060D03*
X2129600Y241060D03*
Y1741060D03*
X2329600Y241060D03*
Y1741060D03*
X2529600Y241060D03*
Y1741060D03*
X2729600Y241060D03*
Y1741060D03*
X2929600Y241060D03*
Y1741060D03*
X3129600Y241060D03*
Y1741060D03*
D02*
D117*
X406350Y1256350D03*
X9110420Y1255100D03*
D02*
D118*
X6857580Y1988240D03*
X7365580D03*
X7873580D03*
X8381580D03*
D02*
D119*
X1670420Y2275100D03*
X1924420D03*
X2178420D03*
X2432420D03*
X2686420D03*
X5568420Y256350D03*
X5570420Y776350D03*
X5822420Y256350D03*
X5824420Y776350D03*
X6076420Y256350D03*
X6078420Y776350D03*
X6330420Y256350D03*
X6332420Y776350D03*
D02*
D120*
X9028820Y404320D03*
X9130420Y183340D03*
X9232020Y404320D03*
D02*
D121*
X3096120Y2015100D03*
Y2275100D03*
X3324720Y2015100D03*
Y2275100D03*
X3636120Y235100D03*
Y495100D03*
Y775100D03*
X3864720Y235100D03*
Y495100D03*
Y775100D03*
X4456120Y1295100D03*
X4684720D03*
X8916120Y2295100D03*
X9036120Y815100D03*
X9144720Y2295100D03*
X9264720Y815100D03*
D02*
D122*
X5344370Y2200760D03*
X5598370D03*
D02*
D123*
X5852370D03*
D02*
D124*
X3630420Y1240800D03*
Y1469400D03*
X4830420Y2080800D03*
Y2309400D03*
X5250420Y1220800D03*
Y1449400D03*
X6370420Y2080800D03*
Y2309400D03*
X6470420Y1240800D03*
Y1469400D03*
D02*
D125*
X6774120Y280230D03*
X7028120Y1042230D03*
X7536120Y280230D03*
X8552120D03*
Y1042230D03*
D02*
D126*
X8810420Y510100D03*
Y720100D03*
D02*
D127*
X5575420Y1228100D03*
Y1482100D03*
X6205420Y1228100D03*
Y1482100D03*
D02*
D128*
X4335420Y180330D03*
Y550330D03*
Y920330D03*
X4885420Y180330D03*
Y550330D03*
Y920330D03*
D02*
D129*
X4610420Y290330D03*
Y790330D03*
D02*
D130*
X8990420Y1915100D03*
X9180920D03*
X0Y0D02*
M02*
