%FSLAX35Y35*%
%MOMM*%
G04 EasyPC Gerber Version 18.0.8 Build 3632 *
%ADD98C,0.10000*%
%ADD10C,0.12700*%
%ADD12C,0.20000*%
%ADD15C,0.25400*%
X0Y0D02*
D02*
D10*
X406350Y1556350D02*
G75*
G03Y956350J-300000D01*
G01*
G75*
G03Y1556350J300000*
G01*
X711360Y1575100D02*
X782790D01*
X798670Y1583040*
X806610Y1598910*
Y1630660*
X798670Y1646540*
X782790Y1654480*
X711360*
X806610Y1717980D02*
Y1749730D01*
Y1733850D02*
X711360D01*
X727230Y1717980*
X909600Y1861060D02*
X3429600D01*
Y121060*
X909600*
Y937600*
X980420*
Y1012600*
X909600*
Y1861060*
X3007220Y2186200D02*
X3413620D01*
Y2364000*
X3007220*
Y2186200*
X3413620Y2104000D02*
X3007220D01*
Y1926200*
X3413620*
Y2104000*
X3541520Y1558300D02*
Y1151900D01*
X3719320*
Y1558300*
X3541520*
X3547220Y686200D02*
X3953620D01*
Y864000*
X3547220*
Y686200*
X3586610Y1935100D02*
X3491360D01*
Y1990660*
X3499290Y2006540*
X3515170Y2014480*
X3531040Y2006540*
X3538980Y1990660*
Y1935100*
Y1990660D02*
X3586610Y2014480D01*
Y2125600D02*
Y2062100D01*
X3531040Y2117660*
X3515170Y2125600*
X3499290Y2117660*
X3491360Y2101790*
Y2077980*
X3499290Y2062100*
X3586610Y2195100D02*
X3491360D01*
Y2250660*
X3499290Y2266540*
X3515170Y2274480*
X3531040Y2266540*
X3538980Y2250660*
Y2195100*
Y2250660D02*
X3586610Y2274480D01*
Y2337980D02*
Y2369730D01*
Y2353850D02*
X3491360D01*
X3507230Y2337980*
X3849800Y1254790D02*
X3841860Y1246850D01*
X3825980Y1238910*
X3802170*
X3786300Y1246850*
X3778360Y1254790*
X3770420Y1270660*
Y1302410*
X3778360Y1318290*
X3786300Y1326230*
X3802170Y1334160*
X3825980*
X3841860Y1326230*
X3849800Y1318290*
X3913300Y1238910D02*
X3945050D01*
X3929170D02*
Y1334160D01*
X3913300Y1318290*
X3953620Y324000D02*
X3547220D01*
Y146200*
X3953620*
Y324000*
Y584000D02*
X3547220D01*
Y406200*
X3953620*
Y584000*
X4169800Y1274790D02*
X4161860Y1266850D01*
X4145980Y1258910*
X4122170*
X4106300Y1266850*
X4098360Y1274790*
X4090420Y1290660*
Y1322410*
X4098360Y1338290*
X4106300Y1346230*
X4122170Y1354160*
X4145980*
X4161860Y1346230*
X4169800Y1338290*
X4280920Y1258910D02*
X4217420D01*
X4272980Y1314480*
X4280920Y1330350*
X4272980Y1346230*
X4257110Y1354160*
X4233300*
X4217420Y1346230*
X4086610Y155100D02*
X3991360D01*
Y210660*
X3999290Y226540*
X4015170Y234480*
X4031040Y226540*
X4038980Y210660*
Y155100*
Y210660D02*
X4086610Y234480D01*
X4078670Y282100D02*
X4086610Y297980D01*
Y321790*
X4078670Y337660*
X4062790Y345600*
X4054860*
X4038980Y337660*
X4031040Y321790*
Y282100*
X3991360*
Y345600*
X4086610Y415100D02*
X3991360D01*
Y470660*
X3999290Y486540*
X4015170Y494480*
X4031040Y486540*
X4038980Y470660*
Y415100*
Y470660D02*
X4086610Y494480D01*
Y581790D02*
X3991360D01*
X4054860Y542100*
Y605600*
X4094910Y715100D02*
X3999660D01*
Y770660*
X4007590Y786540*
X4023470Y794480*
X4039340Y786540*
X4047280Y770660*
Y715100*
Y770660D02*
X4094910Y794480D01*
X4086970Y850040D02*
X4094910Y865910D01*
Y881790*
X4086970Y897660*
X4071090Y905600*
X4055220Y897660*
X4047280Y881790*
Y865910*
Y881790D02*
X4039340Y897660D01*
X4023470Y905600*
X4007590Y897660*
X3999660Y881790*
Y865910*
X4007590Y850040*
X4179240Y70330D02*
Y1090330D01*
X5029240*
Y70330*
X4179240*
X4670730Y2154480D02*
X4678670Y2146540D01*
X4686610Y2130660*
Y2106850*
X4678670Y2090980*
X4670730Y2083040*
X4654860Y2075100*
X4623110*
X4607230Y2083040*
X4599290Y2090980*
X4591360Y2106850*
Y2130660*
X4599290Y2146540*
X4607230Y2154480*
X4678670Y2210040D02*
X4686610Y2225910D01*
Y2241790*
X4678670Y2257660*
X4662790Y2265600*
X4646920Y2257660*
X4638980Y2241790*
Y2225910*
Y2241790D02*
X4631040Y2257660D01*
X4615170Y2265600*
X4599290Y2257660*
X4591360Y2241790*
Y2225910*
X4599290Y2210040*
X4741520Y2398300D02*
Y1991900D01*
X4919320*
Y2398300*
X4741520*
X4773620Y1384000D02*
X4367220D01*
Y1206200*
X4773620*
Y1384000*
X4790420Y1754160D02*
Y1682730D01*
X4798360Y1666850*
X4814230Y1658910*
X4845980*
X4861860Y1666850*
X4869800Y1682730*
Y1754160*
X4980920Y1658910D02*
X4917420D01*
X4972980Y1714480*
X4980920Y1730350*
X4972980Y1746230*
X4957110Y1754160*
X4933300*
X4917420Y1746230*
X5024370Y1658260D02*
X6174370D01*
Y2413260*
X5024370*
Y1658260*
X5106610Y1315100D02*
X5011360D01*
Y1370660*
X5019290Y1386540*
X5035170Y1394480*
X5051040Y1386540*
X5058980Y1370660*
Y1315100*
Y1370660D02*
X5106610Y1394480D01*
X5082790Y1442100D02*
X5066920Y1450040D01*
X5058980Y1465910*
Y1481790*
X5066920Y1497660*
X5082790Y1505600*
X5098670Y1497660*
X5106610Y1481790*
Y1465910*
X5098670Y1450040*
X5082790Y1442100*
X5058980*
X5035170Y1450040*
X5019290Y1465910*
X5011360Y1481790*
X5150730Y195100D02*
X5158670Y203040D01*
X5166610Y218910*
X5158670Y234790*
X5150730Y242730*
X5071360*
Y258600*
Y242730D02*
Y210980D01*
X5166610Y337980D02*
Y369730D01*
Y353850D02*
X5071360D01*
X5087230Y337980*
X5339320Y1131900D02*
Y1538300D01*
X5161520*
Y1131900*
X5339320*
X5346610Y116350D02*
X5251360D01*
Y171910*
X5259290Y187790*
X5275170Y195730*
X5291040Y187790*
X5298980Y171910*
Y116350*
X5251360Y243350D02*
X5346610D01*
Y322730*
X5338670Y378290D02*
X5346610Y394160D01*
Y410040*
X5338670Y425910*
X5322790Y433850*
X5306920Y425910*
X5298980Y410040*
Y394160*
Y410040D02*
X5291040Y425910D01*
X5275170Y433850*
X5259290Y425910*
X5251360Y410040*
Y394160*
X5259290Y378290*
X5386610Y735100D02*
X5291360D01*
Y790660*
X5299290Y806540*
X5315170Y814480*
X5331040Y806540*
X5338980Y790660*
Y735100*
X5291360Y862100D02*
X5386610D01*
Y941480*
Y1052600D02*
Y989100D01*
X5331040Y1044660*
X5315170Y1052600*
X5299290Y1044660*
X5291360Y1028790*
Y1004980*
X5299290Y989100*
X5465420Y1140600D02*
Y1569600D01*
X6315420*
Y1140600*
X5927920*
Y1178100*
X5852920*
Y1140600*
X5465420*
X6010420Y1114160D02*
Y1042730D01*
X6018360Y1026850*
X6034230Y1018910*
X6065980*
X6081860Y1026850*
X6089800Y1042730*
Y1114160*
X6145360Y1026850D02*
X6161230Y1018910D01*
X6177110*
X6192980Y1026850*
X6200920Y1042730*
X6192980Y1058600*
X6177110Y1066540*
X6161230*
X6177110D02*
X6192980Y1074480D01*
X6200920Y1090350*
X6192980Y1106230*
X6177110Y1114160*
X6161230*
X6145360Y1106230*
X6281520Y2398300D02*
Y1991900D01*
X6459320*
Y2398300*
X6281520*
X6330730Y1814480D02*
X6338670Y1806540D01*
X6346610Y1790660*
Y1766850*
X6338670Y1750980*
X6330730Y1743040*
X6314860Y1735100*
X6283110*
X6267230Y1743040*
X6259290Y1750980*
X6251360Y1766850*
Y1790660*
X6259290Y1806540*
X6267230Y1814480*
X6346610Y1901790D02*
X6251360D01*
X6314860Y1862100*
Y1925600*
X6381520Y1558300D02*
Y1151900D01*
X6559320*
Y1558300*
X6381520*
X6390420Y1598910D02*
Y1694160D01*
X6445980*
X6461860Y1686230*
X6469800Y1670350*
X6461860Y1654480*
X6445980Y1646540*
X6390420*
X6445980D02*
X6469800Y1598910D01*
X6517420D02*
X6580920Y1694160D01*
X6517420*
X8635580Y2393240D02*
X6603580D01*
Y1583240*
X8635580*
Y2393240*
X8682120Y1172230D02*
X6644120D01*
Y150230*
X8682120*
Y1172230*
X8750020Y780500D02*
Y449700D01*
X8870820*
Y780500*
X8750020*
X8750730Y1955100D02*
X8758670Y1963040D01*
X8766610Y1978910*
X8758670Y1994790*
X8750730Y2002730*
X8671360*
Y2018600*
Y2002730D02*
Y1970980D01*
X8766610Y2145600D02*
Y2082100D01*
X8711040Y2137660*
X8695170Y2145600*
X8679290Y2137660*
X8671360Y2121790*
Y2097980*
X8679290Y2082100*
X8865920Y664600D02*
X8755920D01*
X8866610Y155100D02*
X8771360D01*
Y202730*
X8779290Y218600*
X8787230Y226540*
X8803110Y234480*
X8834860*
X8850730Y226540*
X8858670Y218600*
X8866610Y202730*
Y155100*
Y297980D02*
Y329730D01*
Y313850D02*
X8771360D01*
X8787230Y297980*
X9092020Y1711900D02*
G75*
G03X9295220Y1915100J203200D01*
G01*
G75*
G03X9092020Y2118300I-203200*
G01*
G75*
G03X8911680Y2044640I-1250J-254520*
G01*
X8901520Y2034480*
Y1795720*
X8911680Y1785560*
G75*
G03X9092020Y1711900I179090J180860*
G01*
X9110420Y1555100D02*
G75*
G03Y955100J-300000D01*
G01*
G75*
G03Y1555100J300000*
G01*
X9210420Y558910D02*
Y654160D01*
X9265980*
X9281860Y646230*
X9289800Y630350*
X9281860Y614480*
X9265980Y606540*
X9210420*
X9265980D02*
X9289800Y558910D01*
X9361230D02*
X9377110Y566850D01*
X9392980Y582730*
X9400920Y606540*
Y630350*
X9392980Y646230*
X9377110Y654160*
X9361230*
X9345360Y646230*
X9337420Y630350*
X9345360Y614480*
X9361230Y606540*
X9377110*
X9392980Y614480*
X9400920Y630350*
X9233620Y2384000D02*
X8827220D01*
Y2206200*
X9233620*
Y2384000*
X9308220Y104600D02*
Y485600D01*
X8952620*
Y104600*
X9305680*
X9449480Y355100D02*
X9378050D01*
X9362170Y347160*
X9354230Y331290*
Y299540*
X9362170Y283660*
X9378050Y275720*
X9449480*
X9354230Y188410D02*
X9449480D01*
X9385980Y228100*
Y164600*
X9353620Y904000D02*
X8947220D01*
Y726200*
X9353620*
Y904000*
X9386610Y2195100D02*
X9291360D01*
Y2250660*
X9299290Y2266540*
X9315170Y2274480*
X9331040Y2266540*
X9338980Y2250660*
Y2195100*
Y2250660D02*
X9386610Y2274480D01*
X9338980Y2345910D02*
Y2361790D01*
X9331040Y2377660*
X9315170Y2385600*
X9299290Y2377660*
X9291360Y2361790*
Y2345910*
X9299290Y2330040*
X9315170Y2322100*
X9331040Y2330040*
X9338980Y2345910*
X9346920Y2330040*
X9362790Y2322100*
X9378670Y2330040*
X9386610Y2345910*
Y2361790*
X9378670Y2377660*
X9362790Y2385600*
X9346920Y2377660*
X9338980Y2361790*
X9351360Y1675100D02*
X9446610D01*
Y1754480*
Y1802100D02*
X9351360D01*
Y1881480*
X9398980Y1865600D02*
Y1802100D01*
X9446610D02*
Y1881480D01*
Y1929100D02*
X9351360D01*
Y1976730*
X9359290Y1992600*
X9367230Y2000540*
X9383110Y2008480*
X9414860*
X9430730Y2000540*
X9438670Y1992600*
X9446610Y1976730*
Y1929100*
Y2071980D02*
Y2103730D01*
Y2087850D02*
X9351360D01*
X9367230Y2071980*
D02*
D12*
X6730420Y1363230D02*
Y1475730D01*
X6824170Y1363230*
Y1475730*
X6974170Y1381980D02*
X6964800Y1372600D01*
X6946050Y1363230*
X6917920*
X6899170Y1372600*
X6889800Y1381980*
X6880420Y1400730*
Y1438230*
X6889800Y1456980*
X6899170Y1466350*
X6917920Y1475730*
X6946050*
X6964800Y1466350*
X6974170Y1456980*
X7230420Y1363230D02*
Y1475730D01*
X7324170Y1363230*
Y1475730*
X7380420Y1400730D02*
Y1438230D01*
X7389800Y1456980*
X7399170Y1466350*
X7417920Y1475730*
X7436670*
X7455420Y1466350*
X7464800Y1456980*
X7474170Y1438230*
Y1400730*
X7464800Y1381980*
X7455420Y1372600*
X7436670Y1363230*
X7417920*
X7399170Y1372600*
X7389800Y1381980*
X7380420Y1400730*
X7729170Y1363230D02*
X7766670D01*
X7747920D02*
Y1475730D01*
X7729170Y1456980*
X7935420Y1363230D02*
X7860420D01*
X7926050Y1428850*
X7935420Y1447600*
X7926050Y1466350*
X7907300Y1475730*
X7879170*
X7860420Y1466350*
X8010420Y1475730D02*
X8057300Y1363230D01*
X8104170Y1475730*
X8336050Y1410100D02*
X8364170D01*
Y1400730*
X8354800Y1381980*
X8345420Y1372600*
X8326670Y1363230*
X8307920*
X8289170Y1372600*
X8279800Y1381980*
X8270420Y1400730*
Y1438230*
X8279800Y1456980*
X8289170Y1466350*
X8307920Y1475730*
X8326670*
X8345420Y1466350*
X8354800Y1456980*
X8364170Y1438230*
X8420420Y1363230D02*
Y1475730D01*
X8514170Y1363230*
Y1475730*
X8570420Y1363230D02*
Y1475730D01*
X8626670*
X8645420Y1466350*
X8654800Y1456980*
X8664170Y1438230*
Y1400730*
X8654800Y1381980*
X8645420Y1372600*
X8626670Y1363230*
X8570420*
D02*
D15*
X1543420Y2148100D02*
X2813420D01*
Y2402100*
X1543420*
Y2148100*
X5443420Y649350D02*
X6459420D01*
Y903350*
X5443420*
Y649350*
X6457420Y383350D02*
X5441420D01*
Y129350*
X6457420*
Y383350*
D02*
D98*
X254170Y2033850D02*
X241670Y2052600D01*
Y2096350*
X254170Y2108850*
X360420Y2077600D02*
X347920Y2083850D01*
X329170*
X316670Y2077600*
X310420Y2065100*
Y2052600*
X316670Y2040100*
X329170Y2033850*
X347920*
X360420Y2040100*
X429170Y2033850D02*
X441670Y2052600D01*
Y2096350*
X429170Y2108850*
X610420D02*
Y2033850D01*
X672920*
X710420Y2083850D02*
X716670Y2058850D01*
X729170Y2046350*
X741670*
X754170Y2058850*
X760420Y2083850*
X754170Y2058850D02*
X747920Y2033850D01*
X741670Y2021350*
X729170Y2015100*
X716670Y2021350*
X810420Y2052600D02*
X816670Y2040100D01*
X829170Y2033850*
X841670*
X854170Y2040100*
X860420Y2052600*
Y2065100*
X854170Y2077600*
X841670Y2083850*
X829170*
X816670Y2077600*
X810420Y2065100*
Y2052600*
X910420Y2033850D02*
Y2083850D01*
Y2065100D02*
X916670Y2077600D01*
X929170Y2083850*
X941670*
X954170Y2077600*
X1010420D02*
X1022920Y2083850D01*
X1041670*
X1054170Y2077600*
X1060420Y2065100*
Y2046350*
X1054170Y2040100*
X1041670Y2033850*
X1029170*
X1016670Y2040100*
X1010420Y2046350*
Y2052600*
X1016670Y2058850*
X1029170Y2065100*
X1041670*
X1054170Y2058850*
X1060420Y2052600*
Y2046350D02*
Y2033850D01*
X1110420D02*
Y2108850D01*
Y2058850D02*
X1129170D01*
X1160420Y2083850*
X1129170Y2058850D02*
X1160420Y2033850D01*
X210420Y2233850D02*
Y2308850D01*
X247920*
X260420Y2302600*
X266670Y2296350*
X272920Y2283850*
Y2258850*
X266670Y2246350*
X260420Y2240100*
X247920Y2233850*
X210420*
X360420Y2240100D02*
X354170Y2233850D01*
X341670*
X329170*
X316670Y2240100*
X310420Y2252600*
Y2271350*
X316670Y2277600*
X329170Y2283850*
X341670*
X354170Y2277600*
X360420Y2271350*
Y2265100*
X354170Y2258850*
X341670Y2252600*
X329170*
X316670Y2258850*
X310420Y2265100*
X410420Y2233850D02*
Y2308850D01*
Y2265100D02*
X416670Y2277600D01*
X429170Y2283850*
X441670*
X454170Y2277600*
X460420Y2265100*
Y2233850*
X510420Y2283850D02*
Y2252600D01*
X516670Y2240100*
X529170Y2233850*
X541670*
X554170Y2240100*
X560420Y2252600*
Y2283850D02*
Y2233850D01*
X610420D02*
Y2283850D01*
Y2277600D02*
X616670Y2283850D01*
X629170*
X635420Y2277600*
Y2258850*
Y2277600D02*
X641670Y2283850D01*
X654170*
X660420Y2277600*
Y2233850*
X735420D02*
Y2283850D01*
Y2302600D02*
X860420Y2265100*
X854170Y2277600D01*
X841670Y2283850*
X829170*
X816670Y2277600*
X810420Y2265100*
Y2252600*
X816670Y2240100*
X829170Y2233850*
X841670*
X854170Y2240100*
X860420Y2252600*
Y2233850D02*
Y2308850D01*
X935420Y2233850D02*
Y2283850D01*
Y2302600D02*
X1035420Y2233850*
Y2296350D01*
X1041670Y2302600*
X1047920*
X1054170Y2296350*
X1022920Y2277600D02*
X1047920D01*
X1135420Y2233850D02*
Y2283850D01*
Y2302600D02*
X1260420Y2240100*
X1254170Y2233850D01*
X1241670*
X1229170*
X1216670Y2240100*
X1210420Y2252600*
Y2271350*
X1216670Y2277600*
X1229170Y2283850*
X1241670*
X1254170Y2277600*
X1260420Y2271350*
Y2265100*
X1254170Y2258850*
X1241670Y2252600*
X1229170*
X1216670Y2258850*
X1210420Y2265100*
X1310420Y2233850D02*
Y2283850D01*
Y2265100D02*
X1316670Y2277600D01*
X1329170Y2283850*
X1341670*
X1354170Y2277600*
X1695420Y1895100D02*
X1635420D01*
Y1930100*
X1640420Y1940100*
X1650420Y1945100*
X1660420Y1940100*
X1665420Y1930100*
Y1895100*
Y1930100D02*
X1695420Y1945100D01*
Y2000100D02*
X1635420D01*
Y1975100D02*
Y2025100D01*
X1680420Y2055100D02*
X1690420Y2060100D01*
X1695420Y2070100*
Y2090100*
X1690420Y2100100*
X1680420Y2105100*
X1670420Y2100100*
X1665420Y2090100*
Y2070100*
X1660420Y2060100*
X1650420Y2055100*
X1640420Y2060100*
X1635420Y2070100*
Y2090100*
X1640420Y2100100*
X1650420Y2105100*
X1955420Y1980100D02*
X1895420D01*
Y1955100D02*
Y2005100D01*
X1955420Y2035100D02*
X1895420Y2085100D01*
Y2035100D02*
X1955420Y2085100D01*
X2195420Y1975100D02*
X2135420D01*
Y2010100*
X2140420Y2020100*
X2150420Y2025100*
X2160420Y2020100*
X2165420Y2010100*
Y1975100*
Y2010100D02*
X2195420Y2025100D01*
Y2055100D02*
X2135420Y2105100D01*
Y2055100D02*
X2195420Y2105100D01*
X2455420Y1895100D02*
X2395420D01*
Y1925100*
X2400420Y1935100*
X2405420Y1940100*
X2415420Y1945100*
X2435420*
X2445420Y1940100*
X2450420Y1935100*
X2455420Y1925100*
Y1895100*
Y2000100D02*
X2395420D01*
Y1975100D02*
Y2025100D01*
X2455420Y2055100D02*
X2395420D01*
Y2090100*
X2400420Y2100100*
X2410420Y2105100*
X2420420Y2100100*
X2425420Y2090100*
Y2055100*
Y2090100D02*
X2455420Y2105100D01*
X2690420Y1930100D02*
Y1945100D01*
X2695420*
X2705420Y1940100*
X2710420Y1935100*
X2715420Y1925100*
Y1915100*
X2710420Y1905100*
X2705420Y1900100*
X2695420Y1895100*
X2675420*
X2665420Y1900100*
X2660420Y1905100*
X2655420Y1915100*
Y1925100*
X2660420Y1935100*
X2665420Y1940100*
X2675420Y1945100*
X2715420Y1975100D02*
X2655420D01*
X2715420Y2025100*
X2655420*
X2715420Y2055100D02*
X2655420D01*
Y2085100*
X2660420Y2095100*
X2665420Y2100100*
X2675420Y2105100*
X2695420*
X2705420Y2100100*
X2710420Y2095100*
X2715420Y2085100*
Y2055100*
X0Y0D02*
M02*
